<mxfile host="65bd71144e">
    <diagram id="sHc_wFPXRGP4sv5DglS8" name="Page-1">
        <mxGraphModel dx="778" dy="514" grid="0" gridSize="10" guides="1" tooltips="1" connect="1" arrows="1" fold="1" page="1" pageScale="1" pageWidth="827" pageHeight="1169" math="0" shadow="0">
            <root>
                <mxCell id="0"/>
                <mxCell id="1" parent="0"/>
                <mxCell id="1aOeus1TCt6_EMql8k9P-38" value="" style="endArrow=classic;html=1;rounded=0;jumpSize=0;spacing=0;fontStyle=1" edge="1" parent="1">
                    <mxGeometry width="50" height="50" relative="1" as="geometry">
                        <mxPoint x="130" y="362" as="sourcePoint"/>
                        <mxPoint x="130" y="170" as="targetPoint"/>
                    </mxGeometry>
                </mxCell>
                <mxCell id="1aOeus1TCt6_EMql8k9P-39" value="" style="endArrow=classic;html=1;rounded=0;jumpSize=0;fontStyle=1" edge="1" parent="1">
                    <mxGeometry width="50" height="50" relative="1" as="geometry">
                        <mxPoint x="130" y="362" as="sourcePoint"/>
                        <mxPoint x="349" y="362" as="targetPoint"/>
                    </mxGeometry>
                </mxCell>
                <mxCell id="1aOeus1TCt6_EMql8k9P-40" value="文系科目の点数" style="text;html=1;align=center;verticalAlign=middle;resizable=0;points=[];autosize=1;strokeColor=none;fillColor=none;" vertex="1" parent="1">
                    <mxGeometry x="80" y="140" width="102" height="26" as="geometry"/>
                </mxCell>
                <mxCell id="1aOeus1TCt6_EMql8k9P-41" value="理系科目の点数" style="text;html=1;align=center;verticalAlign=middle;resizable=0;points=[];autosize=1;strokeColor=none;fillColor=none;" vertex="1" parent="1">
                    <mxGeometry x="270" y="368" width="102" height="26" as="geometry"/>
                </mxCell>
                <mxCell id="1aOeus1TCt6_EMql8k9P-42" value="" style="shape=umlActor;verticalLabelPosition=bottom;verticalAlign=top;html=1;outlineConnect=0;movable=1;resizable=1;rotatable=1;deletable=1;editable=1;locked=0;connectable=1;fillColor=#dae8fc;strokeColor=#6c8ebf;" vertex="1" parent="1">
                    <mxGeometry x="241" y="290.3557692307693" width="14" height="20.64423076923077" as="geometry"/>
                </mxCell>
                <mxCell id="1aOeus1TCt6_EMql8k9P-43" value="" style="shape=umlActor;verticalLabelPosition=bottom;verticalAlign=top;html=1;outlineConnect=0;fillColor=#f8cecc;strokeColor=#b85450;" vertex="1" parent="1">
                    <mxGeometry x="190" y="297" width="14" height="20.64423076923077" as="geometry"/>
                </mxCell>
                <mxCell id="1aOeus1TCt6_EMql8k9P-44" value="" style="shape=umlActor;verticalLabelPosition=bottom;verticalAlign=top;html=1;outlineConnect=0;fillColor=#f8cecc;strokeColor=#b85450;" vertex="1" parent="1">
                    <mxGeometry x="160" y="241.46153846153845" width="14" height="20.64423076923077" as="geometry"/>
                </mxCell>
                <mxCell id="1aOeus1TCt6_EMql8k9P-45" value="" style="shape=umlActor;verticalLabelPosition=bottom;verticalAlign=top;html=1;outlineConnect=0;fillColor=#dae8fc;strokeColor=#6c8ebf;" vertex="1" parent="1">
                    <mxGeometry x="275" y="257.9984615384616" width="14" height="20.64423076923077" as="geometry"/>
                </mxCell>
                <mxCell id="1aOeus1TCt6_EMql8k9P-46" value="" style="shape=umlActor;verticalLabelPosition=bottom;verticalAlign=top;html=1;outlineConnect=0;fillColor=#dae8fc;strokeColor=#6c8ebf;" vertex="1" parent="1">
                    <mxGeometry x="301" y="234.99846153846158" width="14" height="20.64423076923077" as="geometry"/>
                </mxCell>
                <mxCell id="1aOeus1TCt6_EMql8k9P-47" value="" style="shape=umlActor;verticalLabelPosition=bottom;verticalAlign=top;html=1;outlineConnect=0;fillColor=#dae8fc;strokeColor=#6c8ebf;" vertex="1" parent="1">
                    <mxGeometry x="304" y="304.9984615384616" width="14" height="20.64423076923077" as="geometry"/>
                </mxCell>
                <mxCell id="1aOeus1TCt6_EMql8k9P-49" value="" style="shape=umlActor;verticalLabelPosition=bottom;verticalAlign=top;html=1;outlineConnect=0;fillColor=#f8cecc;strokeColor=#b85450;" vertex="1" parent="1">
                    <mxGeometry x="256" y="184.35153846153855" width="14" height="20.64423076923077" as="geometry"/>
                </mxCell>
                <mxCell id="1aOeus1TCt6_EMql8k9P-52" value="200" style="text;html=1;align=center;verticalAlign=middle;resizable=0;points=[];autosize=1;strokeColor=none;fillColor=none;" vertex="1" parent="1">
                    <mxGeometry x="210" y="365.18000000000006" width="40" height="30" as="geometry"/>
                </mxCell>
                <mxCell id="1aOeus1TCt6_EMql8k9P-53" value="200" style="text;html=1;align=center;verticalAlign=middle;resizable=0;points=[];autosize=1;strokeColor=none;fillColor=none;" vertex="1" parent="1">
                    <mxGeometry x="79" y="248.6400000000001" width="40" height="30" as="geometry"/>
                </mxCell>
                <mxCell id="1aOeus1TCt6_EMql8k9P-54" value="400" style="text;html=1;align=center;verticalAlign=middle;resizable=0;points=[];autosize=1;strokeColor=none;fillColor=none;" vertex="1" parent="1">
                    <mxGeometry x="79" y="161.35000000000008" width="40" height="30" as="geometry"/>
                </mxCell>
                <mxCell id="BrvXUqnVYuJZskZ4erfy-1" value="" style="endArrow=none;dashed=1;html=1;rounded=0;" edge="1" parent="1">
                    <mxGeometry width="50" height="50" relative="1" as="geometry">
                        <mxPoint x="227.82" y="361.65" as="sourcePoint"/>
                        <mxPoint x="227.82" y="223.65" as="targetPoint"/>
                    </mxGeometry>
                </mxCell>
                <mxCell id="BrvXUqnVYuJZskZ4erfy-2" value="" style="endArrow=none;dashed=1;html=1;rounded=0;spacing=2;" edge="1" parent="1">
                    <mxGeometry width="50" height="50" relative="1" as="geometry">
                        <mxPoint x="228.82" y="227.65" as="sourcePoint"/>
                        <mxPoint x="288.82" y="227.65" as="targetPoint"/>
                    </mxGeometry>
                </mxCell>
                <mxCell id="BrvXUqnVYuJZskZ4erfy-3" value="" style="endArrow=none;dashed=1;html=1;rounded=0;spacing=2;" edge="1" parent="1">
                    <mxGeometry width="50" height="50" relative="1" as="geometry">
                        <mxPoint x="287.82" y="182.00000000000003" as="sourcePoint"/>
                        <mxPoint x="287.82" y="227.65" as="targetPoint"/>
                    </mxGeometry>
                </mxCell>
            </root>
        </mxGraphModel>
    </diagram>
    <diagram id="GVEoW-Vh-QdhsFFSKa8k" name="Page-2">
        <mxGraphModel dx="944" dy="624" grid="1" gridSize="10" guides="1" tooltips="1" connect="1" arrows="1" fold="1" page="1" pageScale="1" pageWidth="827" pageHeight="1169" math="0" shadow="0">
            <root>
                <mxCell id="0"/>
                <mxCell id="1" parent="0"/>
                <mxCell id="DR_5oZx8dgVO7Dw6aTTb-1" value="" style="endArrow=classic;html=1;rounded=0;jumpSize=0;spacing=0;fontStyle=1" edge="1" parent="1">
                    <mxGeometry width="50" height="50" relative="1" as="geometry">
                        <mxPoint x="130" y="362" as="sourcePoint"/>
                        <mxPoint x="130" y="170" as="targetPoint"/>
                    </mxGeometry>
                </mxCell>
                <mxCell id="DR_5oZx8dgVO7Dw6aTTb-2" value="" style="endArrow=classic;html=1;rounded=0;jumpSize=0;fontStyle=1" edge="1" parent="1">
                    <mxGeometry width="50" height="50" relative="1" as="geometry">
                        <mxPoint x="130" y="362" as="sourcePoint"/>
                        <mxPoint x="349" y="362" as="targetPoint"/>
                    </mxGeometry>
                </mxCell>
                <mxCell id="DR_5oZx8dgVO7Dw6aTTb-3" value="文系科目の点数" style="text;html=1;align=center;verticalAlign=middle;resizable=0;points=[];autosize=1;strokeColor=none;fillColor=none;" vertex="1" parent="1">
                    <mxGeometry x="80" y="140" width="102" height="26" as="geometry"/>
                </mxCell>
                <mxCell id="DR_5oZx8dgVO7Dw6aTTb-4" value="理系科目の点数" style="text;html=1;align=center;verticalAlign=middle;resizable=0;points=[];autosize=1;strokeColor=none;fillColor=none;" vertex="1" parent="1">
                    <mxGeometry x="270" y="368" width="102" height="26" as="geometry"/>
                </mxCell>
                <mxCell id="DR_5oZx8dgVO7Dw6aTTb-5" value="" style="shape=umlActor;verticalLabelPosition=bottom;verticalAlign=top;html=1;outlineConnect=0;movable=1;resizable=1;rotatable=1;deletable=1;editable=1;locked=0;connectable=1;fillColor=#dae8fc;strokeColor=#6c8ebf;" vertex="1" parent="1">
                    <mxGeometry x="241" y="290.3557692307693" width="14" height="20.64423076923077" as="geometry"/>
                </mxCell>
                <mxCell id="DR_5oZx8dgVO7Dw6aTTb-6" value="" style="shape=umlActor;verticalLabelPosition=bottom;verticalAlign=top;html=1;outlineConnect=0;fillColor=#f8cecc;strokeColor=#b85450;" vertex="1" parent="1">
                    <mxGeometry x="190" y="297" width="14" height="20.64423076923077" as="geometry"/>
                </mxCell>
                <mxCell id="DR_5oZx8dgVO7Dw6aTTb-7" value="" style="shape=umlActor;verticalLabelPosition=bottom;verticalAlign=top;html=1;outlineConnect=0;fillColor=#f8cecc;strokeColor=#b85450;" vertex="1" parent="1">
                    <mxGeometry x="160" y="241.46153846153845" width="14" height="20.64423076923077" as="geometry"/>
                </mxCell>
                <mxCell id="DR_5oZx8dgVO7Dw6aTTb-8" value="" style="shape=umlActor;verticalLabelPosition=bottom;verticalAlign=top;html=1;outlineConnect=0;fillColor=#dae8fc;strokeColor=#6c8ebf;" vertex="1" parent="1">
                    <mxGeometry x="275" y="257.9984615384616" width="14" height="20.64423076923077" as="geometry"/>
                </mxCell>
                <mxCell id="DR_5oZx8dgVO7Dw6aTTb-9" value="" style="shape=umlActor;verticalLabelPosition=bottom;verticalAlign=top;html=1;outlineConnect=0;fillColor=#dae8fc;strokeColor=#6c8ebf;" vertex="1" parent="1">
                    <mxGeometry x="301" y="234.99846153846158" width="14" height="20.64423076923077" as="geometry"/>
                </mxCell>
                <mxCell id="DR_5oZx8dgVO7Dw6aTTb-10" value="" style="shape=umlActor;verticalLabelPosition=bottom;verticalAlign=top;html=1;outlineConnect=0;fillColor=#dae8fc;strokeColor=#6c8ebf;" vertex="1" parent="1">
                    <mxGeometry x="304" y="304.9984615384616" width="14" height="20.64423076923077" as="geometry"/>
                </mxCell>
                <mxCell id="DR_5oZx8dgVO7Dw6aTTb-21" value="" style="curved=1;endArrow=none;html=1;rounded=0;endFill=0;dashed=1;fontStyle=1" edge="1" parent="1">
                    <mxGeometry width="50" height="50" relative="1" as="geometry">
                        <mxPoint x="458" y="362" as="sourcePoint"/>
                        <mxPoint x="628" y="189" as="targetPoint"/>
                        <Array as="points">
                            <mxPoint x="498" y="342"/>
                            <mxPoint x="512" y="296"/>
                            <mxPoint x="563" y="194"/>
                        </Array>
                    </mxGeometry>
                </mxCell>
                <mxCell id="DR_5oZx8dgVO7Dw6aTTb-23" value="機械がデータから設定した分類条件" style="shape=callout;whiteSpace=wrap;html=1;perimeter=calloutPerimeter;fontSize=10;position2=0.68;size=14;position=0.45;" vertex="1" parent="1">
                    <mxGeometry x="475" y="143" width="134" height="49" as="geometry"/>
                </mxCell>
                <mxCell id="DR_5oZx8dgVO7Dw6aTTb-24" value="&lt;b&gt;機械学習&lt;/b&gt;" style="rounded=0;whiteSpace=wrap;html=1;fillColor=#dae8fc;strokeColor=#6c8ebf;container=0;" vertex="1" parent="1">
                    <mxGeometry x="413" y="112" width="226" height="18" as="geometry"/>
                </mxCell>
                <mxCell id="DR_5oZx8dgVO7Dw6aTTb-25" value="&lt;b&gt;エキスパートシステム&lt;/b&gt;" style="rounded=0;whiteSpace=wrap;html=1;fillColor=#d5e8d4;strokeColor=#82b366;container=0;" vertex="1" parent="1">
                    <mxGeometry x="141.5" y="112" width="226" height="18" as="geometry"/>
                </mxCell>
                <mxCell id="DR_5oZx8dgVO7Dw6aTTb-26" value="" style="group" connectable="0" vertex="1" parent="1">
                    <mxGeometry x="109" y="60" width="78" height="42.64269230769236" as="geometry"/>
                </mxCell>
                <mxCell id="DR_5oZx8dgVO7Dw6aTTb-27" value="" style="shape=umlActor;verticalLabelPosition=bottom;verticalAlign=top;html=1;outlineConnect=0;fillColor=#f8cecc;strokeColor=#b85450;" vertex="1" parent="DR_5oZx8dgVO7Dw6aTTb-26">
                    <mxGeometry x="14" y="20.001538461538473" width="14" height="20.64423076923077" as="geometry"/>
                </mxCell>
                <mxCell id="DR_5oZx8dgVO7Dw6aTTb-28" value="" style="shape=umlActor;verticalLabelPosition=bottom;verticalAlign=top;html=1;outlineConnect=0;fillColor=#dae8fc;strokeColor=#6c8ebf;" vertex="1" parent="DR_5oZx8dgVO7Dw6aTTb-26">
                    <mxGeometry x="47" y="21.998461538461584" width="14" height="20.64423076923077" as="geometry"/>
                </mxCell>
                <mxCell id="DR_5oZx8dgVO7Dw6aTTb-29" value="文系" style="text;html=1;align=center;verticalAlign=middle;resizable=0;points=[];autosize=1;strokeColor=none;fillColor=none;" vertex="1" parent="DR_5oZx8dgVO7Dw6aTTb-26">
                    <mxGeometry width="42" height="26" as="geometry"/>
                </mxCell>
                <mxCell id="DR_5oZx8dgVO7Dw6aTTb-30" value="理系" style="text;html=1;align=center;verticalAlign=middle;resizable=0;points=[];autosize=1;strokeColor=none;fillColor=none;" vertex="1" parent="DR_5oZx8dgVO7Dw6aTTb-26">
                    <mxGeometry x="36" width="42" height="26" as="geometry"/>
                </mxCell>
                <mxCell id="DR_5oZx8dgVO7Dw6aTTb-57" value="" style="shape=umlActor;verticalLabelPosition=bottom;verticalAlign=top;html=1;outlineConnect=0;fillColor=#f8cecc;strokeColor=#b85450;" vertex="1" parent="1">
                    <mxGeometry x="256" y="184.35153846153855" width="14" height="20.64423076923077" as="geometry"/>
                </mxCell>
                <mxCell id="DR_5oZx8dgVO7Dw6aTTb-59" value="" style="endArrow=none;dashed=1;html=1;rounded=0;" edge="1" parent="1">
                    <mxGeometry width="50" height="50" relative="1" as="geometry">
                        <mxPoint x="229" y="364" as="sourcePoint"/>
                        <mxPoint x="229" y="226" as="targetPoint"/>
                    </mxGeometry>
                </mxCell>
                <mxCell id="DR_5oZx8dgVO7Dw6aTTb-60" value="" style="endArrow=none;dashed=1;html=1;rounded=0;spacing=2;" edge="1" parent="1">
                    <mxGeometry width="50" height="50" relative="1" as="geometry">
                        <mxPoint x="230" y="230" as="sourcePoint"/>
                        <mxPoint x="290" y="230" as="targetPoint"/>
                    </mxGeometry>
                </mxCell>
                <mxCell id="DR_5oZx8dgVO7Dw6aTTb-61" value="200" style="text;html=1;align=center;verticalAlign=middle;resizable=0;points=[];autosize=1;strokeColor=none;fillColor=none;" vertex="1" parent="1">
                    <mxGeometry x="210" y="365.18000000000006" width="40" height="30" as="geometry"/>
                </mxCell>
                <mxCell id="DR_5oZx8dgVO7Dw6aTTb-62" value="200" style="text;html=1;align=center;verticalAlign=middle;resizable=0;points=[];autosize=1;strokeColor=none;fillColor=none;" vertex="1" parent="1">
                    <mxGeometry x="79" y="248.6400000000001" width="40" height="30" as="geometry"/>
                </mxCell>
                <mxCell id="m9p_ZLAUqnxka56fsEHq-1" value="400" style="text;html=1;align=center;verticalAlign=middle;resizable=0;points=[];autosize=1;strokeColor=none;fillColor=none;" vertex="1" parent="1">
                    <mxGeometry x="79" y="161.35000000000008" width="40" height="30" as="geometry"/>
                </mxCell>
                <mxCell id="m9p_ZLAUqnxka56fsEHq-3" value="" style="endArrow=classic;html=1;rounded=0;jumpSize=0;spacing=0;fontStyle=1" edge="1" parent="1">
                    <mxGeometry width="50" height="50" relative="1" as="geometry">
                        <mxPoint x="411" y="362.73" as="sourcePoint"/>
                        <mxPoint x="411" y="170.73" as="targetPoint"/>
                    </mxGeometry>
                </mxCell>
                <mxCell id="m9p_ZLAUqnxka56fsEHq-4" value="" style="endArrow=classic;html=1;rounded=0;jumpSize=0;fontStyle=1" edge="1" parent="1">
                    <mxGeometry width="50" height="50" relative="1" as="geometry">
                        <mxPoint x="411" y="362.73" as="sourcePoint"/>
                        <mxPoint x="630" y="362.73" as="targetPoint"/>
                    </mxGeometry>
                </mxCell>
                <mxCell id="m9p_ZLAUqnxka56fsEHq-5" value="文系科目の点数" style="text;html=1;align=center;verticalAlign=middle;resizable=0;points=[];autosize=1;strokeColor=none;fillColor=none;" vertex="1" parent="1">
                    <mxGeometry x="361" y="140.73" width="102" height="26" as="geometry"/>
                </mxCell>
                <mxCell id="m9p_ZLAUqnxka56fsEHq-6" value="理系科目の点数" style="text;html=1;align=center;verticalAlign=middle;resizable=0;points=[];autosize=1;strokeColor=none;fillColor=none;" vertex="1" parent="1">
                    <mxGeometry x="551" y="368.73" width="102" height="26" as="geometry"/>
                </mxCell>
                <mxCell id="m9p_ZLAUqnxka56fsEHq-7" value="" style="shape=umlActor;verticalLabelPosition=bottom;verticalAlign=top;html=1;outlineConnect=0;movable=1;resizable=1;rotatable=1;deletable=1;editable=1;locked=0;connectable=1;fillColor=#dae8fc;strokeColor=#6c8ebf;" vertex="1" parent="1">
                    <mxGeometry x="522" y="291.0857692307693" width="14" height="20.64423076923077" as="geometry"/>
                </mxCell>
                <mxCell id="m9p_ZLAUqnxka56fsEHq-8" value="" style="shape=umlActor;verticalLabelPosition=bottom;verticalAlign=top;html=1;outlineConnect=0;fillColor=#f8cecc;strokeColor=#b85450;" vertex="1" parent="1">
                    <mxGeometry x="471" y="297.73" width="14" height="20.64423076923077" as="geometry"/>
                </mxCell>
                <mxCell id="m9p_ZLAUqnxka56fsEHq-9" value="" style="shape=umlActor;verticalLabelPosition=bottom;verticalAlign=top;html=1;outlineConnect=0;fillColor=#f8cecc;strokeColor=#b85450;" vertex="1" parent="1">
                    <mxGeometry x="441" y="242.19153846153844" width="14" height="20.64423076923077" as="geometry"/>
                </mxCell>
                <mxCell id="m9p_ZLAUqnxka56fsEHq-10" value="" style="shape=umlActor;verticalLabelPosition=bottom;verticalAlign=top;html=1;outlineConnect=0;fillColor=#dae8fc;strokeColor=#6c8ebf;" vertex="1" parent="1">
                    <mxGeometry x="556" y="258.7284615384616" width="14" height="20.64423076923077" as="geometry"/>
                </mxCell>
                <mxCell id="m9p_ZLAUqnxka56fsEHq-11" value="" style="shape=umlActor;verticalLabelPosition=bottom;verticalAlign=top;html=1;outlineConnect=0;fillColor=#dae8fc;strokeColor=#6c8ebf;" vertex="1" parent="1">
                    <mxGeometry x="582" y="235.72846153846157" width="14" height="20.64423076923077" as="geometry"/>
                </mxCell>
                <mxCell id="m9p_ZLAUqnxka56fsEHq-12" value="" style="shape=umlActor;verticalLabelPosition=bottom;verticalAlign=top;html=1;outlineConnect=0;fillColor=#dae8fc;strokeColor=#6c8ebf;" vertex="1" parent="1">
                    <mxGeometry x="585" y="305.7284615384616" width="14" height="20.64423076923077" as="geometry"/>
                </mxCell>
                <mxCell id="m9p_ZLAUqnxka56fsEHq-13" value="" style="shape=umlActor;verticalLabelPosition=bottom;verticalAlign=top;html=1;outlineConnect=0;fillColor=#f8cecc;strokeColor=#b85450;" vertex="1" parent="1">
                    <mxGeometry x="537" y="185.08153846153854" width="14" height="20.64423076923077" as="geometry"/>
                </mxCell>
                <mxCell id="m9p_ZLAUqnxka56fsEHq-14" value="200" style="text;html=1;align=center;verticalAlign=middle;resizable=0;points=[];autosize=1;strokeColor=none;fillColor=none;" vertex="1" parent="1">
                    <mxGeometry x="491" y="365.9100000000001" width="40" height="30" as="geometry"/>
                </mxCell>
                <mxCell id="m9p_ZLAUqnxka56fsEHq-15" value="200" style="text;html=1;align=center;verticalAlign=middle;resizable=0;points=[];autosize=1;strokeColor=none;fillColor=none;" vertex="1" parent="1">
                    <mxGeometry x="360" y="249.3700000000001" width="40" height="30" as="geometry"/>
                </mxCell>
                <mxCell id="m9p_ZLAUqnxka56fsEHq-16" value="400" style="text;html=1;align=center;verticalAlign=middle;resizable=0;points=[];autosize=1;strokeColor=none;fillColor=none;" vertex="1" parent="1">
                    <mxGeometry x="360" y="162.08000000000007" width="40" height="30" as="geometry"/>
                </mxCell>
                <mxCell id="nJU_gIwH95LGJeLpZ9ch-1" value="" style="endArrow=none;dashed=1;html=1;rounded=0;spacing=2;" edge="1" parent="1">
                    <mxGeometry width="50" height="50" relative="1" as="geometry">
                        <mxPoint x="289" y="184.35" as="sourcePoint"/>
                        <mxPoint x="289" y="230" as="targetPoint"/>
                    </mxGeometry>
                </mxCell>
            </root>
        </mxGraphModel>
    </diagram>
    <diagram id="dgnATRv4MyzsNd2RIyXT" name="Page-3">
        <mxGraphModel dx="661" dy="437" grid="1" gridSize="10" guides="1" tooltips="1" connect="1" arrows="1" fold="1" page="1" pageScale="1" pageWidth="827" pageHeight="1169" math="0" shadow="0">
            <root>
                <mxCell id="0"/>
                <mxCell id="1" parent="0"/>
                <mxCell id="Lq4OY6OBSmXQsOXxwkSS-1" value="" style="endArrow=classic;html=1;rounded=0;jumpSize=0;spacing=0;fontStyle=1" edge="1" parent="1">
                    <mxGeometry width="50" height="50" relative="1" as="geometry">
                        <mxPoint x="90" y="713.0000000000002" as="sourcePoint"/>
                        <mxPoint x="90" y="521" as="targetPoint"/>
                    </mxGeometry>
                </mxCell>
                <mxCell id="Lq4OY6OBSmXQsOXxwkSS-2" value="" style="endArrow=classic;html=1;rounded=0;jumpSize=0;fontStyle=1" edge="1" parent="1">
                    <mxGeometry width="50" height="50" relative="1" as="geometry">
                        <mxPoint x="90" y="713.0000000000002" as="sourcePoint"/>
                        <mxPoint x="309" y="713.0000000000002" as="targetPoint"/>
                    </mxGeometry>
                </mxCell>
                <mxCell id="Lq4OY6OBSmXQsOXxwkSS-3" value="文系科目の点数" style="text;html=1;align=center;verticalAlign=middle;resizable=0;points=[];autosize=1;strokeColor=none;fillColor=none;" vertex="1" parent="1">
                    <mxGeometry x="40" y="489.9999999999999" width="102" height="26" as="geometry"/>
                </mxCell>
                <mxCell id="Lq4OY6OBSmXQsOXxwkSS-4" value="理系科目の点数" style="text;html=1;align=center;verticalAlign=middle;resizable=0;points=[];autosize=1;strokeColor=none;fillColor=none;" vertex="1" parent="1">
                    <mxGeometry x="230" y="719.0000000000002" width="102" height="26" as="geometry"/>
                </mxCell>
                <mxCell id="Lq4OY6OBSmXQsOXxwkSS-5" value="" style="shape=umlActor;verticalLabelPosition=bottom;verticalAlign=top;html=1;outlineConnect=0;movable=1;resizable=1;rotatable=1;deletable=1;editable=1;locked=0;connectable=1;fillColor=#dae8fc;strokeColor=#6c8ebf;" vertex="1" parent="1">
                    <mxGeometry x="201" y="641.3557692307693" width="14" height="20.64423076923077" as="geometry"/>
                </mxCell>
                <mxCell id="Lq4OY6OBSmXQsOXxwkSS-6" value="" style="shape=umlActor;verticalLabelPosition=bottom;verticalAlign=top;html=1;outlineConnect=0;fillColor=#f8cecc;strokeColor=#b85450;" vertex="1" parent="1">
                    <mxGeometry x="150" y="648" width="14" height="20.64423076923077" as="geometry"/>
                </mxCell>
                <mxCell id="Lq4OY6OBSmXQsOXxwkSS-7" value="" style="shape=umlActor;verticalLabelPosition=bottom;verticalAlign=top;html=1;outlineConnect=0;fillColor=#f8cecc;strokeColor=#b85450;" vertex="1" parent="1">
                    <mxGeometry x="120" y="592.4615384615385" width="14" height="20.64423076923077" as="geometry"/>
                </mxCell>
                <mxCell id="Lq4OY6OBSmXQsOXxwkSS-8" value="" style="shape=umlActor;verticalLabelPosition=bottom;verticalAlign=top;html=1;outlineConnect=0;fillColor=#dae8fc;strokeColor=#6c8ebf;" vertex="1" parent="1">
                    <mxGeometry x="235" y="608.9984615384616" width="14" height="20.64423076923077" as="geometry"/>
                </mxCell>
                <mxCell id="Lq4OY6OBSmXQsOXxwkSS-9" value="" style="shape=umlActor;verticalLabelPosition=bottom;verticalAlign=top;html=1;outlineConnect=0;fillColor=#dae8fc;strokeColor=#6c8ebf;" vertex="1" parent="1">
                    <mxGeometry x="261" y="585.9984615384616" width="14" height="20.64423076923077" as="geometry"/>
                </mxCell>
                <mxCell id="Lq4OY6OBSmXQsOXxwkSS-10" value="" style="shape=umlActor;verticalLabelPosition=bottom;verticalAlign=top;html=1;outlineConnect=0;fillColor=#dae8fc;strokeColor=#6c8ebf;" vertex="1" parent="1">
                    <mxGeometry x="264" y="655.9984615384616" width="14" height="20.64423076923077" as="geometry"/>
                </mxCell>
                <mxCell id="Lq4OY6OBSmXQsOXxwkSS-11" value="" style="curved=1;endArrow=none;html=1;rounded=0;endFill=0;dashed=1;fontStyle=1" edge="1" parent="1">
                    <mxGeometry width="50" height="50" relative="1" as="geometry">
                        <mxPoint x="138" y="711.6799999999998" as="sourcePoint"/>
                        <mxPoint x="303" y="538.6800000000001" as="targetPoint"/>
                        <Array as="points">
                            <mxPoint x="179" y="696.68"/>
                            <mxPoint x="190" y="673.68"/>
                            <mxPoint x="187" y="645.68"/>
                            <mxPoint x="205" y="547.68"/>
                        </Array>
                    </mxGeometry>
                </mxCell>
                <mxCell id="Lq4OY6OBSmXQsOXxwkSS-12" value="" style="endArrow=classic;html=1;rounded=0;jumpSize=0;spacing=0;fontStyle=1" edge="1" parent="1">
                    <mxGeometry width="50" height="50" relative="1" as="geometry">
                        <mxPoint x="448" y="714.8200000000004" as="sourcePoint"/>
                        <mxPoint x="448" y="522.8199999999999" as="targetPoint"/>
                    </mxGeometry>
                </mxCell>
                <mxCell id="Lq4OY6OBSmXQsOXxwkSS-13" value="" style="endArrow=classic;html=1;rounded=0;jumpSize=0;fontStyle=1" edge="1" parent="1">
                    <mxGeometry width="50" height="50" relative="1" as="geometry">
                        <mxPoint x="448" y="714.8200000000004" as="sourcePoint"/>
                        <mxPoint x="667" y="714.8200000000004" as="targetPoint"/>
                    </mxGeometry>
                </mxCell>
                <mxCell id="Lq4OY6OBSmXQsOXxwkSS-14" value="文系科目の点数" style="text;html=1;align=center;verticalAlign=middle;resizable=0;points=[];autosize=1;strokeColor=none;fillColor=none;" vertex="1" parent="1">
                    <mxGeometry x="398" y="491.81999999999994" width="102" height="26" as="geometry"/>
                </mxCell>
                <mxCell id="Lq4OY6OBSmXQsOXxwkSS-15" value="理系科目の点数" style="text;html=1;align=center;verticalAlign=middle;resizable=0;points=[];autosize=1;strokeColor=none;fillColor=none;" vertex="1" parent="1">
                    <mxGeometry x="588" y="720.8200000000002" width="102" height="26" as="geometry"/>
                </mxCell>
                <mxCell id="Lq4OY6OBSmXQsOXxwkSS-16" value="" style="shape=umlActor;verticalLabelPosition=bottom;verticalAlign=top;html=1;outlineConnect=0;movable=1;resizable=1;rotatable=1;deletable=1;editable=1;locked=0;connectable=1;fillColor=#dae8fc;strokeColor=#6c8ebf;" vertex="1" parent="1">
                    <mxGeometry x="559" y="643.1757692307693" width="14" height="20.64423076923077" as="geometry"/>
                </mxCell>
                <mxCell id="Lq4OY6OBSmXQsOXxwkSS-17" value="" style="shape=umlActor;verticalLabelPosition=bottom;verticalAlign=top;html=1;outlineConnect=0;fillColor=#f8cecc;strokeColor=#b85450;" vertex="1" parent="1">
                    <mxGeometry x="508" y="649.82" width="14" height="20.64423076923077" as="geometry"/>
                </mxCell>
                <mxCell id="Lq4OY6OBSmXQsOXxwkSS-18" value="" style="shape=umlActor;verticalLabelPosition=bottom;verticalAlign=top;html=1;outlineConnect=0;fillColor=#f8cecc;strokeColor=#b85450;" vertex="1" parent="1">
                    <mxGeometry x="478" y="594.2815384615385" width="14" height="20.64423076923077" as="geometry"/>
                </mxCell>
                <mxCell id="Lq4OY6OBSmXQsOXxwkSS-19" value="" style="shape=umlActor;verticalLabelPosition=bottom;verticalAlign=top;html=1;outlineConnect=0;fillColor=#dae8fc;strokeColor=#6c8ebf;" vertex="1" parent="1">
                    <mxGeometry x="593" y="610.8184615384616" width="14" height="20.64423076923077" as="geometry"/>
                </mxCell>
                <mxCell id="Lq4OY6OBSmXQsOXxwkSS-20" value="" style="shape=umlActor;verticalLabelPosition=bottom;verticalAlign=top;html=1;outlineConnect=0;fillColor=#dae8fc;strokeColor=#6c8ebf;" vertex="1" parent="1">
                    <mxGeometry x="619" y="587.8184615384616" width="14" height="20.64423076923077" as="geometry"/>
                </mxCell>
                <mxCell id="Lq4OY6OBSmXQsOXxwkSS-21" value="" style="shape=umlActor;verticalLabelPosition=bottom;verticalAlign=top;html=1;outlineConnect=0;fillColor=#dae8fc;strokeColor=#6c8ebf;" vertex="1" parent="1">
                    <mxGeometry x="622" y="657.8184615384616" width="14" height="20.64423076923077" as="geometry"/>
                </mxCell>
                <mxCell id="Lq4OY6OBSmXQsOXxwkSS-22" value="" style="curved=1;endArrow=none;html=1;rounded=0;endFill=0;dashed=1;fontStyle=1" edge="1" parent="1">
                    <mxGeometry width="50" height="50" relative="1" as="geometry">
                        <mxPoint x="496.0000000000002" y="713.5" as="sourcePoint"/>
                        <mxPoint x="660.9999999999998" y="540.5" as="targetPoint"/>
                        <Array as="points">
                            <mxPoint x="537" y="698.4999999999999"/>
                            <mxPoint x="548" y="675.5"/>
                            <mxPoint x="545" y="647.5"/>
                            <mxPoint x="563" y="549.5"/>
                        </Array>
                    </mxGeometry>
                </mxCell>
                <mxCell id="Lq4OY6OBSmXQsOXxwkSS-23" value="" style="shape=umlActor;verticalLabelPosition=bottom;verticalAlign=top;html=1;outlineConnect=0;fillColor=#666666;strokeColor=#36393d;" vertex="1" parent="1">
                    <mxGeometry x="556" y="608.4615384615386" width="14" height="20.64423076923077" as="geometry"/>
                </mxCell>
                <mxCell id="Lq4OY6OBSmXQsOXxwkSS-24" value="未知のデータ" style="rounded=1;whiteSpace=wrap;html=1;movable=1;resizable=1;rotatable=1;deletable=1;editable=1;locked=0;connectable=1;fontSize=11;" vertex="1" parent="1">
                    <mxGeometry x="517.75" y="589.32" width="90.5" height="14" as="geometry"/>
                </mxCell>
                <mxCell id="Lq4OY6OBSmXQsOXxwkSS-25" value="" style="triangle;whiteSpace=wrap;html=1;rotation=90;fillColor=#666666;" vertex="1" parent="1">
                    <mxGeometry x="551" y="694" width="17.5" height="145" as="geometry"/>
                </mxCell>
                <mxCell id="Lq4OY6OBSmXQsOXxwkSS-26" value="&lt;b&gt;境界の右側にいるため「理系」と予測&lt;/b&gt;" style="text;html=1;align=center;verticalAlign=middle;resizable=0;points=[];autosize=1;strokeColor=none;fillColor=none;" vertex="1" parent="1">
                    <mxGeometry x="452" y="788.0000000000002" width="222" height="26" as="geometry"/>
                </mxCell>
            </root>
        </mxGraphModel>
    </diagram>
</mxfile>